<svg width="24" height="20" viewBox="0 0 24 20" fill="none" xmlns="http://www.w3.org/2000/svg">
<path d="M3.20275 17.0938H5.43248C5.43248 18.2312 6.43252 19.1562 7.66221 19.1562H16.5811C17.8108 19.1562 18.8109 18.2312 18.8109 17.0938H21.0406C22.2703 17.0938 23.2703 16.1687 23.2703 15.0312V4.71875C23.2703 3.58128 22.2703 2.65625 21.0406 2.65625H18.8109C18.8109 1.51878 17.8108 0.59375 16.5811 0.59375H7.66221C6.43252 0.59375 5.43248 1.51878 5.43248 2.65625H3.20275C1.97306 2.65625 0.973022 3.58128 0.973022 4.71875V15.0312C0.973022 16.1687 1.97306 17.0938 3.20275 17.0938ZM21.0406 4.71875V15.0312H18.8109V4.71875H21.0406ZM7.66221 2.65625H16.5811L16.5822 17.0938H7.66221V2.65625ZM3.20275 4.71875H5.43248V15.0312H3.20275V4.71875Z" fill="#F2F2F2"/>
</svg>
