<svg width="27" height="26" viewBox="0 0 27 26" fill="none" xmlns="http://www.w3.org/2000/svg">
<path d="M13.8081 24.5001C20.2116 24.5001 25.4027 19.5137 25.4027 13.3626C25.4027 7.21152 20.2116 2.2251 13.8081 2.2251C7.40457 2.2251 2.2135 7.21152 2.2135 13.3626C2.2135 19.5137 7.40457 24.5001 13.8081 24.5001Z" stroke="white" stroke-width="2.5" stroke-linecap="round" stroke-linejoin="round"/>
<path d="M2.2135 13.3625H25.4027" stroke="white" stroke-width="1.5" stroke-linecap="round" stroke-linejoin="round"/>
<path d="M13.8081 24.5001C16.3695 24.5001 18.4459 19.5137 18.4459 13.3626C18.4459 7.21152 16.3695 2.2251 13.8081 2.2251C11.2466 2.2251 9.17023 7.21152 9.17023 13.3626C9.17023 19.5137 11.2466 24.5001 13.8081 24.5001Z" stroke="white" stroke-width="1.5" stroke-linecap="round" stroke-linejoin="round"/>
<path d="M5.6095 5.64551C7.70771 7.66101 10.6064 8.90763 13.8081 8.90763C17.0099 8.90763 19.9085 7.66101 22.0067 5.64551" stroke="white" stroke-width="1.5" stroke-linecap="round" stroke-linejoin="round"/>
<path d="M22.0067 21.0795C19.9085 19.064 17.0099 17.8174 13.8081 17.8174C10.6064 17.8174 7.70771 19.064 5.6095 21.0795" stroke="white" stroke-width="1.5" stroke-linecap="round" stroke-linejoin="round"/>
</svg>
